<svg width="172" height="171" viewBox="0 0 172 171" fill="none" xmlns="http://www.w3.org/2000/svg">
<path d="M110.674 117.733C111.747 117.996 112.83 117.339 113.093 116.266L117.376 98.7833C117.639 97.7104 116.982 96.6276 115.909 96.3648C114.836 96.102 113.754 96.7586 113.491 97.8314L109.683 113.372L94.143 109.564C93.0701 109.302 91.9873 109.958 91.7245 111.031C91.4617 112.104 92.1183 113.187 93.1911 113.45L110.674 117.733ZM102.29 105.037L109.44 116.827L112.86 114.753L105.71 102.963L102.29 105.037Z" fill="white"/>
<path d="M122.179 118.63C121.86 119.65 122.483 120.751 123.571 121.087L141.298 126.57C142.385 126.906 143.526 126.351 143.845 125.33C144.164 124.31 143.54 123.209 142.452 122.873L126.695 118L131.315 103.213C131.633 102.193 131.01 101.092 129.922 100.756C128.834 100.42 127.694 100.974 127.375 101.995L122.179 118.63ZM137.016 110.762L123.164 117.501L125.133 120.976L138.984 114.238L137.016 110.762Z" fill="white"/>
<path d="M120.885 129.351C119.809 129.103 118.735 129.774 118.487 130.85L114.441 148.389C114.193 149.466 114.864 150.54 115.94 150.788C117.016 151.036 118.09 150.365 118.338 149.289L121.935 133.698L137.525 137.294C138.602 137.543 139.675 136.871 139.924 135.795C140.172 134.719 139.501 133.645 138.424 133.397L120.885 129.351ZM130.696 143.94L122.131 130.239L118.74 132.36L127.304 146.06L130.696 143.94Z" fill="white"/>
<path d="M109.247 128.305C109.588 127.254 109.013 126.126 107.962 125.785L90.8423 120.226C89.7917 119.885 88.6635 120.46 88.3224 121.511C87.9813 122.561 88.5564 123.69 89.607 124.031L104.825 128.972L99.8836 144.19C99.5425 145.24 100.118 146.369 101.168 146.71C102.219 147.051 103.347 146.476 103.688 145.425L109.247 128.305ZM93.9083 136.782L108.253 129.469L106.436 125.906L92.0917 133.218L93.9083 136.782Z" fill="white"/>
<rect width="2.35438" height="19.1391" transform="matrix(0.887669 -0.460483 0.515445 0.856923 109.671 115.681)" fill="white"/>
<rect width="2.26323" height="19.9088" transform="matrix(0.505427 0.862869 -0.892575 0.4509 124.283 117.866)" fill="white"/>
<path d="M37.3885 139.759C38.4808 139.595 39.2333 138.576 39.0692 137.484L36.3957 119.684C36.2317 118.591 35.2132 117.839 34.1209 118.003C33.0285 118.167 32.276 119.186 32.4401 120.278L34.8165 136.1L18.994 138.477C17.9017 138.641 17.1492 139.659 17.3133 140.752C17.4773 141.844 18.4958 142.597 19.5881 142.432L37.3885 139.759ZM23.0194 129.871L35.9029 139.39L38.2799 136.173L25.3963 126.654L23.0194 129.871Z" fill="white"/>
<path d="M48.4217 136.142C48.563 137.238 49.5657 138.011 50.6612 137.87L68.5133 135.567C69.6088 135.426 70.3823 134.423 70.241 133.328C70.0997 132.232 69.0971 131.459 68.0016 131.6L52.133 133.647L50.0863 117.778C49.945 116.683 48.9423 115.909 47.8469 116.051C46.7514 116.192 45.9778 117.194 46.1191 118.29L48.4217 136.142ZM57.8317 122.986L48.8218 134.665L51.9888 137.108L60.9988 125.43L57.8317 122.986Z" fill="white"/>
<path d="M51.2769 146.483C50.1962 146.712 49.5057 147.774 49.7344 148.854L53.4622 166.464C53.691 167.545 54.7525 168.235 55.8331 168.006C56.9137 167.778 57.6043 166.716 57.3755 165.635L54.0619 149.982L69.715 146.669C70.7956 146.44 71.4862 145.379 71.2574 144.298C71.0287 143.217 69.9672 142.527 68.8866 142.755L51.2769 146.483ZM65.6218 155.117L52.7817 146.764L50.6004 150.116L63.4405 158.47L65.6218 155.117Z" fill="white"/>
<path d="M40.2208 150.047C40.1251 148.946 39.1554 148.132 38.055 148.228L20.1227 149.787C19.0223 149.883 18.2078 150.852 18.3035 151.953C18.3992 153.053 19.3688 153.868 20.4692 153.772L36.4091 152.386L37.7953 168.326C37.891 169.426 38.8606 170.241 39.961 170.145C41.0614 170.049 41.8759 169.08 41.7802 167.979L40.2208 150.047ZM29.4037 163.835L39.7597 151.507L36.6969 148.934L26.3408 161.263L29.4037 163.835Z" fill="white"/>
<rect width="2.35438" height="19.1391" transform="matrix(0.637733 -0.770257 0.808873 0.587984 35.6868 138.258)" fill="white"/>
<rect width="2.26323" height="19.9088" transform="matrix(0.801968 0.597367 -0.645988 0.763347 49.9937 134.57)" fill="white"/>
<circle cx="32" cy="74" r="32" fill="#BAB4B4"/>
<circle cx="66" cy="38" r="38" fill="#BAB4B4"/>
<circle cx="110" cy="48" r="38" fill="#BAB4B4"/>
<circle cx="137.5" cy="71.5" r="34.5" fill="#BAB4B4"/>
<rect x="32" y="52" width="108" height="54" fill="#BAB4B4"/>
<rect x="32" y="42" width="93" height="29" fill="#BAB4B4"/>
</svg>
