<svg width="162" height="160" viewBox="0 0 162 160" fill="none" xmlns="http://www.w3.org/2000/svg">
<circle cx="80" cy="80" r="40" fill="#D4971F"/>
<path d="M81 0L92 31H70L81 0Z" fill="#D4971F"/>
<path d="M138.156 24.8818L124.001 53.575L108.759 37.5094L138.156 24.8818Z" fill="#D4971F"/>
<path d="M160.679 79.5306L130.778 91.4984L130.12 69.3622L160.679 79.5306Z" fill="#D4971F"/>
<path d="M139.297 133.207L109.011 122.249L123.246 105.284L139.297 133.207Z" fill="#D4971F"/>
<path d="M82.9168 159.591L70.8822 129.717L93.0168 129.009L82.9168 159.591Z" fill="#D4971F"/>
<path d="M22.5572 23.8895L51.8286 37.3239L36.2342 53.0483L22.5572 23.8895Z" fill="#D4971F"/>
<path d="M0.0356146 80.5197L30.3101 69.531L30.2484 91.6769L0.0356146 80.5197Z" fill="#D4971F"/>
<path d="M23.5997 136.339L37.774 107.419L53.0969 123.408L23.5997 136.339Z" fill="#D4971F"/>
</svg>
