<svg width="189" height="135" viewBox="0 0 189 135" fill="none" xmlns="http://www.w3.org/2000/svg">
<circle cx="132.128" cy="56.1282" r="28.0641" fill="#D4971F"/>
<path d="M132.83 0L140.547 21.7497H125.112L132.83 0Z" fill="#D4971F"/>
<path d="M172.93 17.4571L163 37.5884L152.305 26.3167L172.93 17.4571Z" fill="#D4971F"/>
<path d="M188.733 55.7989L167.755 64.1956L167.292 48.6647L188.733 55.7989Z" fill="#D4971F"/>
<path d="M173.731 93.4581L152.483 85.77L162.47 73.8675L173.731 93.4581Z" fill="#D4971F"/>
<path d="M134.175 111.97L125.731 91.0098L141.261 90.5128L134.175 111.97Z" fill="#D4971F"/>
<path d="M91.8262 16.7609L112.363 26.1866L101.422 37.2189L91.8262 16.7609Z" fill="#D4971F"/>
<path d="M76.025 56.4929L97.2657 48.7832L97.2224 64.3208L76.025 56.4929Z" fill="#D4971F"/>
<path d="M92.5577 95.6561L102.502 75.3655L113.253 86.5836L92.5577 95.6561Z" fill="#D4971F"/>
<circle cx="32" cy="103" r="32" fill="#BAB4B4"/>
<circle cx="69" cy="68" r="38" fill="#BAB4B4"/>
<circle cx="103" cy="78" r="38" fill="#BAB4B4"/>
<circle cx="137.5" cy="100.5" r="34.5" fill="#BAB4B4"/>
<rect x="32" y="81" width="108" height="54" fill="#BAB4B4"/>
<rect x="32" y="71" width="93" height="29" fill="#BAB4B4"/>
</svg>
